<svg width="50.313" height="50.313" viewBox="0 0 70.313 70.313" xmlns="http://www.w3.org/2000/svg"><g id="svgGroup" stroke-linecap="round"  font-size="9pt" stroke="#fa022f" stroke-width="0.25mm" fill="#fa022f" style="stroke:#000;stroke-width:0.25mm;fill:#fa022f"><path d="M 27.295 54.785 L 27.295 51.27 L 42.188 51.27 Q 48.779 51.27 54.419 48.145 Q 60.059 45.02 63.428 39.453 Q 66.797 33.887 66.797 27.148 Q 66.797 20.947 63.452 15.479 Q 60.107 10.01 54.419 6.763 A 24.269 24.269 0 0 0 42.187 3.516 L 3.516 3.516 L 3.516 70.313 L 0 70.313 L 0 0 L 42.188 0 A 27.399 27.399 0 0 1 52.954 2.197 Q 58.154 4.395 61.963 8.081 A 28.15 28.15 0 0 1 68.042 16.772 A 24.851 24.851 0 0 1 70.312 27.148 A 30.809 30.809 0 0 1 69.368 34.886 A 27.043 27.043 0 0 1 68.066 38.721 A 26.136 26.136 0 0 1 64.629 44.616 A 22.831 22.831 0 0 1 61.963 47.485 Q 58.105 50.977 53.003 52.881 A 30.678 30.678 0 0 1 42.188 54.785 L 27.295 54.785 Z M 27.295 47.754 L 27.295 44.238 L 42.188 44.238 Q 49.414 44.238 54.59 39.453 A 15.857 15.857 0 0 0 59.752 27.905 A 21.261 21.261 0 0 0 59.766 27.148 A 15.134 15.134 0 0 0 55.728 16.828 A 20.65 20.65 0 0 0 54.492 15.552 A 17.313 17.313 0 0 0 42.188 10.547 L 10.547 10.547 L 10.547 70.313 L 7.031 70.313 L 7.031 7.031 L 42.188 7.031 A 20.7 20.7 0 0 1 56.982 13.062 Q 63.281 19.092 63.281 27.148 A 20.34 20.34 0 0 1 61.55 35.617 A 19.788 19.788 0 0 1 57.056 41.846 A 20.848 20.848 0 0 1 42.187 47.754 L 27.295 47.754 Z M 27.295 40.723 L 27.295 37.207 L 42.188 37.207 A 12.161 12.161 0 0 0 46.194 36.568 A 10.632 10.632 0 0 0 49.658 34.57 A 8.589 8.589 0 0 0 52.542 29.407 A 12.672 12.672 0 0 0 52.734 27.148 A 8.211 8.211 0 0 0 50.884 21.973 A 11.912 11.912 0 0 0 49.512 20.508 A 11.397 11.397 0 0 0 46.012 18.288 A 10.361 10.361 0 0 0 42.187 17.578 L 17.578 17.578 L 17.578 70.313 L 14.063 70.313 L 14.063 14.063 L 42.188 14.063 A 13.945 13.945 0 0 1 52.026 18.018 A 14.365 14.365 0 0 1 54.751 21.415 A 11.453 11.453 0 0 1 56.25 27.148 A 15.142 15.142 0 0 1 55.624 31.609 A 11.849 11.849 0 0 1 52.148 37.036 A 14.283 14.283 0 0 1 42.643 40.717 A 18.305 18.305 0 0 1 42.188 40.723 L 27.295 40.723 Z M 24.609 24.609 L 24.609 70.313 L 21.094 70.313 L 21.094 21.094 L 42.188 21.094 A 7.761 7.761 0 0 1 45.136 21.642 A 7.265 7.265 0 0 1 47.144 22.876 A 6.389 6.389 0 0 1 48.468 24.409 A 5.194 5.194 0 0 1 49.219 27.148 A 8.71 8.71 0 0 1 48.845 29.817 Q 47.934 32.647 44.802 33.41 A 11.081 11.081 0 0 1 42.188 33.691 L 27.295 33.691 L 27.295 30.176 L 42.188 30.176 A 5.939 5.939 0 0 0 43.513 30.041 Q 45.343 29.621 45.644 27.884 A 4.308 4.308 0 0 0 45.703 27.148 A 2.026 2.026 0 0 0 45.065 25.666 A 3.114 3.114 0 0 0 44.678 25.342 A 3.895 3.895 0 0 0 42.987 24.669 A 5.188 5.188 0 0 0 42.187 24.609 L 24.609 24.609 Z" vector-effect="non-scaling-stroke"/></g></svg>